<svg xmlns="http://www.w3.org/2000/svg" width="16" height="16" viewBox="0 0 16 16" fill="none">
<g clip-path="url(#clip0_2_623)">
<path d="M7.33334 4.66665H8.66668V5.99998H7.33334V4.66665ZM7.33334 7.33331H8.66668V11.3333H7.33334V7.33331ZM8.00001 1.33331C4.32001 1.33331 1.33334 4.31998 1.33334 7.99998C1.33334 11.68 4.32001 14.6666 8.00001 14.6666C11.68 14.6666 14.6667 11.68 14.6667 7.99998C14.6667 4.31998 11.68 1.33331 8.00001 1.33331ZM8.00001 13.3333C5.06001 13.3333 2.66668 10.94 2.66668 7.99998C2.66668 5.05998 5.06001 2.66665 8.00001 2.66665C10.94 2.66665 13.3333 5.05998 13.3333 7.99998C13.3333 10.94 10.94 13.3333 8.00001 13.3333Z" fill="currentColor"/>
</g>
<defs>
<clipPath id="clip0_2_623">
<rect width="16" height="16" fill="white"/>
</clipPath>
</defs>
</svg>